<?xml version="1.0" encoding="utf-8"?>
<!-- Generator: Adobe Illustrator 16.0.0, SVG Export Plug-In . SVG Version: 6.00 Build 0)  -->
<!DOCTYPE svg PUBLIC "-//W3C//DTD SVG 1.1//EN" "http://www.w3.org/Graphics/SVG/1.1/DTD/svg11.dtd">
<svg version="1.1" id="Ebene_1" xmlns="http://www.w3.org/2000/svg" xmlns:xlink="http://www.w3.org/1999/xlink" x="0px" y="0px"
	 width="85.039px" height="85.039px" viewBox="0 0 85.039 85.039" enable-background="new 0 0 85.039 85.039" xml:space="preserve">
<rect fill="#FFFFFF" width="85.039" height="85.039"/>
<g>
	<path d="M40.766,26.116c-0.248,0.253-2.875,1.773-7.882,4.559c-1.751,0.997-2.627,1.522-2.627,1.576v0.082l10.509,5.869v0.792
		l-11.818-6.661v-0.082c0.296-0.296,4.236-2.546,11.818-6.75V26.116"/>
	<path d="M41.392,25.502h-0.081v13.492l3.326-1.88v-0.722c-0.802,0.454-1.671,0.946-2.606,1.476h-0.075V26.622
		c3.865,2.1,7.157,3.976,9.875,5.626c-0.01,0.043-1.55,0.938-4.619,2.684v0.726l5.9-3.336v-0.074
		C53.014,32.139,49.106,29.89,41.392,25.502"/>
	<path d="M7.916,42.008h0.883l3.867,9.191h-0.96l-1-2.44H5.839l-1.039,2.44H3.906L7.916,42.008 M8.318,42.942L6.177,47.98h4.218
		L8.318,42.942z"/>
	<polyline points="15.145,42.787 12.004,42.787 12.004,42.008 19.142,42.008 19.142,42.787 16.001,42.787 16.001,51.199 
		15.145,51.199 15.145,42.787 	"/>
	<polyline points="20.557,42.008 26.176,42.008 26.176,42.787 21.414,42.787 21.414,46.06 25.878,46.06 25.878,46.839 
		21.414,46.839 21.414,50.421 26.384,50.421 26.384,51.199 20.557,51.199 20.557,42.008 	"/>
	<polyline points="28.253,42.008 29.11,42.008 29.11,50.421 33.392,50.421 33.392,51.199 28.253,51.199 28.253,42.008 	"/>
	<rect x="34.742" y="42.008" width="0.856" height="9.191"/>
	<polyline points="38.116,42.008 43.735,42.008 43.735,42.787 38.973,42.787 38.973,46.06 43.438,46.06 43.438,46.839 
		38.973,46.839 38.973,50.421 43.943,50.421 43.943,51.199 38.116,51.199 38.116,42.008 	"/>
	<path d="M45.812,42.008h2.415c0.12,0,0.285,0.005,0.493,0.014s0.433,0.034,0.675,0.078c0.242,0.043,0.488,0.112,0.739,0.208
		c0.251,0.095,0.477,0.233,0.675,0.414c0.199,0.183,0.364,0.412,0.493,0.688c0.13,0.277,0.195,0.615,0.195,1.014
		c0,0.441-0.076,0.805-0.228,1.091c-0.151,0.285-0.342,0.518-0.57,0.694c-0.229,0.178-0.483,0.31-0.76,0.396
		c-0.277,0.086-0.541,0.146-0.792,0.181l2.674,4.413h-0.974l-2.582-4.36h-1.597v4.36h-0.857V42.008 M46.669,46.06h1.817
		c0.449,0,0.815-0.056,1.097-0.169c0.28-0.112,0.499-0.251,0.654-0.415c0.156-0.165,0.262-0.343,0.318-0.533
		c0.056-0.189,0.084-0.363,0.084-0.519c0-0.156-0.028-0.329-0.084-0.52c-0.057-0.191-0.162-0.368-0.318-0.533
		c-0.155-0.164-0.374-0.302-0.654-0.415c-0.281-0.112-0.647-0.169-1.097-0.169h-1.817V46.06z"/>
	<path d="M56.767,42.008h2.841c0.797,0,1.472,0.098,2.025,0.292c0.554,0.195,1.014,0.444,1.382,0.747s0.658,0.638,0.869,1.007
		c0.213,0.368,0.368,0.72,0.468,1.058s0.162,0.644,0.188,0.916c0.025,0.272,0.039,0.466,0.039,0.578s-0.014,0.304-0.039,0.577
		c-0.026,0.272-0.089,0.577-0.188,0.915s-0.255,0.689-0.468,1.058c-0.211,0.367-0.501,0.703-0.869,1.006s-0.828,0.552-1.382,0.746
		s-1.229,0.292-2.025,0.292h-2.841V42.008 M57.623,50.421h1.765c0.604,0,1.172-0.076,1.7-0.228c0.527-0.151,0.986-0.383,1.376-0.694
		c0.389-0.312,0.696-0.707,0.922-1.188c0.225-0.48,0.337-1.049,0.337-1.706c0-0.658-0.112-1.227-0.337-1.709
		c-0.226-0.479-0.533-0.876-0.922-1.188c-0.39-0.311-0.849-0.542-1.376-0.694c-0.528-0.151-1.096-0.227-1.7-0.227h-1.765V50.421z"/>
	<polyline points="66.499,42.008 67.355,42.008 67.355,50.421 71.64,50.421 71.64,51.199 66.499,51.199 66.499,42.008 	"/>
	<g>
		<path d="M80.556,49.759c-0.441,0.598-0.953,1.024-1.532,1.284s-1.207,0.39-1.882,0.39c-0.7,0-1.343-0.119-1.927-0.356
			c-0.585-0.238-1.084-0.571-1.499-1c-0.415-0.428-0.74-0.938-0.974-1.531s-0.351-1.239-0.351-1.939
			c0-0.702,0.117-1.346,0.351-1.936c0.233-0.588,0.559-1.098,0.974-1.525c0.415-0.429,0.914-0.764,1.499-1.006
			c0.584-0.243,1.227-0.364,1.927-0.364c0.623,0,1.205,0.11,1.745,0.331c0.542,0.221,1.016,0.591,1.422,1.109l-0.701,0.586
			c-0.285-0.434-0.65-0.75-1.097-0.948c-0.445-0.199-0.902-0.3-1.369-0.3c-0.597,0-1.135,0.104-1.615,0.312
			c-0.48,0.208-0.889,0.494-1.227,0.857s-0.598,0.793-0.779,1.285c-0.182,0.494-0.272,1.026-0.272,1.599
			c0,0.57,0.091,1.103,0.272,1.596s0.441,0.922,0.779,1.284c0.338,0.363,0.746,0.649,1.227,0.856
			c0.48,0.208,1.019,0.312,1.615,0.312c0.233,0,0.477-0.028,0.728-0.085c0.25-0.056,0.495-0.143,0.733-0.26
			c0.237-0.116,0.464-0.264,0.681-0.441c0.216-0.177,0.406-0.391,0.572-0.641L80.556,49.759"/>
	</g>
</g>
</svg>
